<svg t="1776090051045" class="icon" viewBox="0 0 1024 1024" version="1.1" xmlns="http://www.w3.org/2000/svg" p-id="3633" width="200" height="200"><path d="M916.224 80H107.776C64.832 80 32 113.12 32 156.48v711.04c0 40.8 32.832 76.48 75.776 76.48h808.448C956.64 944 992 908.32 992 867.52V156.48c0-40.8-32.832-76.48-75.776-76.48zM304 240c42.496 0 80 35.008 80 80s-35.008 80-80 80c-42.496 0-80-35.008-80-80s37.504-80 80-80z m-47.008 576c-7.264 0-14.528-2.496-21.76-7.52-14.528-12.544-14.528-30.08-2.432-45.12l150.08-218.08c12.096-12.512 29.024-15.04 43.552-4.992l130.72 95.232 234.784-260.672c12.096-12.544 70.176-77.696 104.064-5.024v443.68C896 816 256.992 816 256.992 816z" fill="#333333" p-id="3634"></path></svg>